<svg version="1.1" preserveAspectRatio="none" xmlns="http://www.w3.org/2000/svg" width="500" height="500" viewBox="0 0 500 500"><rect width="100%" height="100%" fill="#F3F3F3" fill-opacity="1"/><svg viewBox="244.3826 331.0466 396.4256 257.1264" width="417" height="270.4712026670326" x="41.5px" y="114.7644px" xmlns="http://www.w3.org/2000/svg" xmlns:xlink="http://www.w3.org/1999/xlink" preserveAspectRatio="none"><defs></defs><style>.companyName {fill:#333258;fill-opacity:1;}.icon1 {fill:#333258;fill-opacity:1;}.icon2 {fill:#F36958;fill-opacity:1;}.icon3 {fill:#8C94CC;fill-opacity:1;}.icon3-str {stroke:#8C94CC;stroke-opacity:1;}</style><g opacity="1" transform="rotate(0 244.3826 498.173)">
<svg width="396.4256" height="90" x="244.3826" y="498.173" version="1.1" preserveAspectRatio="none" viewBox="1.56 -31.24 179.35999999999999 40.72">
  <g transform="matrix(1 0 0 1 0 0)" class="companyName"><path id="id-D6z1nYkh9" d="M17.20-16.84Q17.72-16.84 18.06-16.50Q18.40-16.16 18.40-15.64L18.40-15.64Q18.40-15.12 18.06-14.76Q17.72-14.40 17.20-14.40L17.20-14.40L3.96-14.40L3.96-1.20Q3.96-0.68 3.62-0.34Q3.28 0 2.76 0L2.76 0Q2.24 0 1.90-0.34Q1.56-0.68 1.56-1.20L1.56-1.20L1.56-30.04Q1.56-30.56 1.90-30.90Q2.24-31.24 2.76-31.24L2.76-31.24L22-31.24Q22.48-31.24 22.84-30.90Q23.20-30.56 23.20-30.04L23.20-30.04Q23.20-29.56 22.84-29.20Q22.48-28.84 22-28.84L22-28.84L3.96-28.84L3.96-16.84L17.20-16.84Z M31.40-20.68Q31.40-21.24 31.74-21.56Q32.08-21.88 32.60-21.88L32.60-21.88Q33.16-21.88 33.48-21.56Q33.80-21.24 33.80-20.68L33.80-20.68L33.80-1.20Q33.80-0.68 33.48-0.34Q33.16 0 32.60 0L32.60 0Q32.08 0 31.74-0.34Q31.40-0.68 31.40-1.20L31.40-1.20L31.40-20.68ZM32.60-30.20Q33.36-30.20 33.90-29.72Q34.44-29.24 34.44-28.36L34.44-28.36Q34.44-27.56 33.90-27.02Q33.36-26.48 32.56-26.48L32.56-26.48Q31.76-26.48 31.24-27.02Q30.72-27.56 30.72-28.36L30.72-28.36Q30.72-29.24 31.28-29.72Q31.84-30.20 32.60-30.20L32.60-30.20Z M53.80-22.16Q56.72-22.16 59.02-20.96Q61.32-19.76 62.62-17.46Q63.92-15.16 63.92-11.96L63.92-11.96L63.92-1.20Q63.92-0.68 63.58-0.34Q63.24 0 62.72 0L62.72 0Q62.20 0 61.86-0.34Q61.52-0.68 61.52-1.20L61.52-1.20L61.52-11.96Q61.52-15.76 59.38-17.76Q57.24-19.76 53.80-19.76L53.80-19.76Q51.68-19.76 49.94-18.94Q48.20-18.12 47.20-16.66Q46.20-15.20 46.20-13.44L46.20-13.44L46.20-1.20Q46.20-0.68 45.88-0.34Q45.56 0 45 0L45 0Q44.48 0 44.14-0.34Q43.80-0.68 43.80-1.20L43.80-1.20L43.80-20.68Q43.80-21.24 44.14-21.56Q44.48-21.88 45-21.88L45-21.88Q45.56-21.88 45.88-21.56Q46.20-21.24 46.20-20.68L46.20-20.68L46.20-18.60Q47.56-20.28 49.52-21.22Q51.48-22.16 53.80-22.16L53.80-22.16Z M82.52-29.08Q79.60-29.08 78.28-27.14Q76.96-25.20 76.96-21.92L76.96-21.92L76.96-21.08L82.24-21.08Q82.72-21.08 83.02-20.78Q83.32-20.48 83.32-20L83.32-20Q83.32-19.52 83.02-19.22Q82.72-18.92 82.24-18.92L82.24-18.92L76.96-18.92L76.96-1.20Q76.96-0.68 76.62-0.34Q76.28 0 75.72 0L75.72 0Q75.20 0 74.86-0.34Q74.52-0.68 74.52-1.20L74.52-1.20L74.52-18.92L71.40-18.92Q70.92-18.92 70.62-19.22Q70.32-19.52 70.32-20L70.32-20Q70.32-20.48 70.62-20.78Q70.92-21.08 71.40-21.08L71.40-21.08L74.52-21.08L74.52-21.92Q74.52-26.20 76.52-28.72Q78.52-31.24 82.52-31.24L82.52-31.24Q83.04-31.24 83.38-30.94Q83.72-30.64 83.72-30.16L83.72-30.16Q83.72-29.68 83.38-29.38Q83.04-29.08 82.52-29.08L82.52-29.08Z M90.12-20.68Q90.12-21.24 90.46-21.56Q90.80-21.88 91.32-21.88L91.32-21.88Q91.88-21.88 92.20-21.56Q92.52-21.24 92.52-20.68L92.52-20.68L92.52-1.20Q92.52-0.68 92.20-0.34Q91.88 0 91.32 0L91.32 0Q90.80 0 90.46-0.34Q90.12-0.68 90.12-1.20L90.12-1.20L90.12-20.68ZM91.32-30.20Q92.08-30.20 92.62-29.72Q93.16-29.24 93.16-28.36L93.16-28.36Q93.16-27.56 92.62-27.02Q92.08-26.48 91.28-26.48L91.28-26.48Q90.48-26.48 89.96-27.02Q89.44-27.56 89.44-28.36L89.44-28.36Q89.44-29.24 90-29.72Q90.56-30.20 91.32-30.20L91.32-30.20Z M112.52-22.16Q115.44-22.16 117.74-20.96Q120.04-19.76 121.34-17.46Q122.64-15.16 122.64-11.96L122.64-11.96L122.64-1.20Q122.64-0.68 122.30-0.34Q121.96 0 121.44 0L121.44 0Q120.92 0 120.58-0.34Q120.24-0.68 120.24-1.20L120.24-1.20L120.24-11.96Q120.24-15.76 118.10-17.76Q115.96-19.76 112.52-19.76L112.52-19.76Q110.40-19.76 108.66-18.94Q106.92-18.12 105.92-16.66Q104.92-15.20 104.92-13.44L104.92-13.44L104.92-1.20Q104.92-0.68 104.60-0.34Q104.28 0 103.72 0L103.72 0Q103.20 0 102.86-0.34Q102.52-0.68 102.52-1.20L102.52-1.20L102.52-20.68Q102.52-21.24 102.86-21.56Q103.20-21.88 103.72-21.88L103.72-21.88Q104.28-21.88 104.60-21.56Q104.92-21.24 104.92-20.68L104.92-20.68L104.92-18.60Q106.28-20.28 108.24-21.22Q110.20-22.16 112.52-22.16L112.52-22.16Z M132.24-20.68Q132.24-21.24 132.58-21.56Q132.92-21.88 133.44-21.88L133.44-21.88Q134-21.88 134.32-21.56Q134.64-21.24 134.64-20.68L134.64-20.68L134.64-1.20Q134.64-0.68 134.32-0.34Q134 0 133.44 0L133.44 0Q132.92 0 132.58-0.34Q132.24-0.68 132.24-1.20L132.24-1.20L132.24-20.68ZM133.44-30.20Q134.20-30.20 134.74-29.72Q135.28-29.24 135.28-28.36L135.28-28.36Q135.28-27.56 134.74-27.02Q134.20-26.48 133.40-26.48L133.40-26.48Q132.60-26.48 132.08-27.02Q131.56-27.56 131.56-28.36L131.56-28.36Q131.56-29.24 132.12-29.72Q132.68-30.20 133.44-30.20L133.44-30.20Z M154.52-2.44Q155.08-2.44 155.42-2.10Q155.76-1.76 155.76-1.20L155.76-1.20Q155.76-0.68 155.42-0.34Q155.08 0 154.52 0L154.52 0L153.60 0Q151.40 0 149.68-1Q147.96-2 147-3.74Q146.04-5.48 146.04-7.68L146.04-7.68L146.04-18.92L142.92-18.92Q142.44-18.92 142.14-19.22Q141.84-19.52 141.84-20L141.84-20Q141.84-20.48 142.14-20.78Q142.44-21.08 142.92-21.08L142.92-21.08L146.04-21.08L146.04-27.60Q146.04-28.16 146.38-28.50Q146.72-28.84 147.24-28.84L147.24-28.84Q147.80-28.84 148.14-28.50Q148.48-28.16 148.48-27.60L148.48-27.60L148.48-21.08L153.76-21.08Q154.24-21.08 154.54-20.78Q154.84-20.48 154.84-20L154.84-20Q154.84-19.52 154.54-19.22Q154.24-18.92 153.76-18.92L153.76-18.92L148.48-18.92L148.48-7.68Q148.48-5.36 149.92-3.90Q151.36-2.44 153.64-2.44L153.64-2.44L154.52-2.44Z M180.16-21.84Q180.92-21.52 180.92-20.92L180.92-20.92Q180.92-20.76 180.76-20.36L180.76-20.36L167.32 8.76Q166.96 9.48 166.40 9.48L166.40 9.48Q166.16 9.48 165.84 9.36L165.84 9.36Q165.08 9.04 165.08 8.44L165.08 8.44Q165.08 8.28 165.24 7.88L165.24 7.88L169.24-0.76Q169.20-0.80 169.08-1.04L169.08-1.04L160.32-20.24Q160.16-20.56 160.16-20.88L160.16-20.88Q160.16-21.48 160.84-21.80L160.84-21.80Q161.16-21.96 161.48-21.96L161.48-21.96Q162.08-21.96 162.40-21.28L162.40-21.28L170.52-3.52L178.68-21.24Q179.04-21.96 179.60-21.96L179.60-21.96Q179.88-21.96 180.16-21.84L180.16-21.84Z"/></g>
</svg>
</g><g opacity="1" transform="rotate(0 402.9528 331.0466)">
<svg width="79.2852" height="127.1264" x="402.9528" y="331.0466" version="1.1" preserveAspectRatio="none" viewBox="26.09000015258789 11.66200065612793 47.820003509521484 76.67500305175781">
  <g transform="matrix(1 0 0 1 0 0)" class="icon1"><path d="M69.047,24.216l-8.905-0.861v-7.016l-1.834-2.954l-11.863-1.723l-1.327,1.332l-1.493-0.225l-2.706,2.708v5.248l-7.962-0.817  v1.23h-3.188L26.09,84.523h3.593l5.358,3.814l38.869-6.03L69.047,24.216z M43.747,21.016l-0.438-0.045l0.178-5.247h0.26V21.016z   M55.621,22.714l-9.054-1.329v-5.661l9.196,1.354L55.621,22.714z M58.307,23.109l-0.26-0.039v-4.761l-0.855-2.345l1.116,0.128  V23.109z"></path></g>
</svg>
</g></svg></svg>